Coordinates
version=1
nRows=27
nColumns=38
inDegrees=no

Units are S.I. units (second, meters, Newtons, ...)
If the header above contains a line with 'inDegrees', this indicates whether rotational values are in degrees (yes) or radians (no).

endheader
time	pelvis_tilt	pelvis_list	pelvis_rotation	pelvis_tx	pelvis_ty	pelvis_tz	hip_flexion_r	hip_adduction_r	hip_rotation_r	knee_angle_r	ankle_angle_r	subtalar_angle_r	mtp_angle_r	hip_flexion_l	hip_adduction_l	hip_rotation_l	knee_angle_l	ankle_angle_l	subtalar_angle_l	mtp_angle_l	lumbar_extension	lumbar_bending	lumbar_rotation	arm_flex_r	arm_add_r	arm_rot_r	elbow_flex_r	pro_sup_r	wrist_flex_r	wrist_dev_r	arm_flex_l	arm_add_l	arm_rot_l	elbow_flex_l	pro_sup_l	wrist_flex_l	wrist_dev_l
2.75	-0.114981	-0.175091	-0.0743895	0.789882	0.818371	-0.298757	0.622765	0.19951	-0.328963	-0.980833	0.594167	0.1	-0.00304403	0.332433	-0.294089	-0.163661	-2.0998	-0.127875	0.1	-0.0055616	-0.250355	0.176636	0.146265	-0.484303	-0.521773	-0.098525	1.73144	1.46632	-5.66263e-06	-0.0173684	-0.169695	-0.399037	0.00357626	1.80879	2.05666	-0.00482724	-0.00281183
2.76	-0.117277	-0.170906	-0.0720063	0.785827	0.818647	-0.298967	0.570649	0.203614	-0.301643	-0.989712	0.657064	0.1	-0.00304403	0.451807	-0.279767	-0.134647	-2.15152	-0.0846865	0.1	-0.0055616	-0.252308	0.168512	0.16246	-0.40445	-0.548561	-0.0751805	1.74771	1.46983	-5.66263e-06	-0.0173684	-0.219704	-0.394108	-0.0117713	1.79049	2.08836	-0.00482724	-0.00281183
2.77	-0.121818	-0.159241	-0.0642186	0.782065	0.819368	-0.299524	0.510808	0.197146	-0.280755	-0.980211	0.712171	0.1	-0.00304403	0.574572	-0.253726	-0.104599	-2.17975	-0.0374406	0.1	-0.0055616	-0.250013	0.153041	0.173494	-0.331149	-0.573815	-0.0561525	1.77451	1.47125	-5.66263e-06	-0.0173684	-0.26847	-0.394278	-0.0255311	1.7802	2.11653	-0.00482724	-0.00281183
2.78	-0.12846	-0.140363	-0.0532374	0.778849	0.820492	-0.300287	0.443829	0.18072	-0.267015	-0.952767	0.754666	0.1	-0.00304403	0.695917	-0.21817	-0.0779043	-2.18402	0.0136231	0.1	-0.0055616	-0.243621	0.130113	0.181222	-0.265643	-0.598194	-0.0417108	1.81145	1.46963	-5.66263e-06	-0.0173684	-0.316798	-0.399026	-0.0380695	1.77748	2.13701	-0.00482724	-0.00281183
2.79	-0.136897	-0.115171	-0.0414345	0.776402	0.822044	-0.301124	0.370677	0.155672	-0.260743	-0.908649	0.780082	0.1	-0.00304403	0.811057	-0.176367	-0.0582903	-2.16456	0.0679093	0.1	-0.0055616	-0.233617	0.100246	0.187641	-0.208404	-0.622356	-0.0318073	1.85707	1.46465	-5.66263e-06	-0.0173684	-0.365495	-0.407334	-0.0501735	1.78139	2.14688	-0.00482724	-0.00281183
2.8	-0.14666	-0.0851124	-0.0309274	0.774888	0.824084	-0.30197	0.292693	0.123875	-0.261982	-0.849959	0.784513	0.1	-0.00304403	0.915732	-0.132134	-0.0481869	-2.1223	0.124508	0.1	-0.0055616	-0.220729	0.064642	0.194592	-0.159398	-0.646754	-0.0262859	1.90923	1.45679	-5.66263e-06	-0.0173684	-0.415123	-0.417846	-0.0628061	1.79057	2.1453	-0.00482724	-0.00281183
2.81	-0.157137	-0.0520935	-0.0232844	0.774381	0.826671	-0.302819	0.211581	0.0875924	-0.270461	-0.779699	0.764864	0.1	-0.00304403	1.00655	-0.0892913	-0.0484708	-2.05872	0.182253	0.1	-0.0055616	-0.205846	0.0251687	0.203541	-0.118363	-0.671516	-0.0250261	1.96547	1.44722	-5.66263e-06	-0.0173684	-0.465819	-0.429067	-0.0768312	1.8035	2.13363	-0.00482724	-0.00281183
2.82	-0.167646	-0.0183409	-0.0193736	0.774831	0.829842	-0.303671	0.129401	0.0493117	-0.285415	-0.701855	0.719212	0.1	-0.00304403	1.08114	-0.0511575	-0.0585917	-1.97569	0.239798	0.1	-0.0055616	-0.189932	-0.0157693	0.215426	-0.0850023	-0.696419	-0.0279606	2.02341	1.43741	-5.66263e-06	-0.0173684	-0.517236	-0.439534	-0.0928013	1.81869	2.11497	-0.00482724	-0.00281183
2.83	-0.177536	0.013808	-0.0193538	0.776078	0.833582	-0.3045	0.0485411	0.0115596	-0.305404	-0.621441	0.647299	0.1	-0.00304403	1.1382	-0.0201765	-0.0769856	-1.87529	0.295766	0.1	-0.0055616	-0.173927	-0.055461	0.230566	-0.0590638	-0.720938	-0.0349851	2.0809	1.42876	-5.66263e-06	-0.0173684	-0.568591	-0.447946	-0.110857	1.8349	2.09318	-0.00482724	-0.00281183
2.84	-0.186284	0.0421343	-0.0227802	0.777909	0.837794	-0.305262	-0.028341	-0.0232613	-0.328107	-0.544368	0.550974	0.1	-0.00304403	1.17743	0.00227302	-0.101593	-1.75985	0.34888	0.1	-0.0055616	-0.158666	-0.0911849	0.248644	-0.0403259	-0.744328	-0.0458268	2.13613	1.42231	-5.66263e-06	-0.0173684	-0.618804	-0.453234	-0.130755	1.85119	2.07196	-0.00482724	-0.00281183
2.85	-0.193554	0.064754	-0.0287865	0.780079	0.842296	-0.305903	-0.0984797	-0.0530043	-0.350266	-0.477111	0.434436	0.1	-0.00304403	1.19937	0.0158758	-0.130317	-1.63186	0.398031	0.1	-0.0055616	-0.144815	-0.120521	0.268781	-0.0285332	-0.765714	-0.0599323	2.1876	1.41859	-5.66263e-06	-0.0173684	-0.666661	-0.454594	-0.151983	1.86701	2.05416	-0.00482724	-0.00281183
2.86	-0.199177	0.0802979	-0.0362976	0.78235	0.846836	-0.306379	-0.159271	-0.0759094	-0.367935	-0.426176	0.304087	0.1	-0.00304403	1.20525	0.0212143	-0.161333	-1.49421	0.442269	0.1	-0.0055616	-0.132892	-0.141634	0.289683	-0.0233303	-0.784178	-0.076417	2.23406	1.41776	-5.66263e-06	-0.0173684	-0.710965	-0.451513	-0.173914	1.8821	2.04133	-0.00482724	-0.00281183
2.87	-0.203059	0.0880422	-0.0442216	0.78454	0.851166	-0.306664	-0.20862	-0.0907656	-0.377124	-0.397463	0.167997	0.1	-0.00304403	1.19677	0.019522	-0.193236	-1.35034	0.480747	0.1	-0.0055616	-0.123341	-0.153501	0.30982	-0.0242295	-0.798848	-0.0940901	2.27436	1.41976	-5.66263e-06	-0.0173684	-0.75065	-0.4438	-0.195916	1.89642	2.0337	-0.00482724	-0.00281183
2.88	-0.205049	0.0880141	-0.0515736	0.786561	0.855109	-0.306752	-0.245286	-0.0970885	-0.374784	-0.39563	0.0349381	0.1	-0.00304403	1.17581	0.0124375	-0.225021	-1.2044	0.512631	0.1	-0.0055616	-0.116628	-0.15602	0.327609	-0.0306339	-0.808991	-0.111558	2.30752	1.42448	-5.66263e-06	-0.0173684	-0.784828	-0.431645	-0.217402	1.91008	2.03039	-0.00482724	-0.00281183
2.89	-0.204817	0.0809906	-0.0575165	0.788412	0.858578	-0.306671	-0.269106	-0.0952552	-0.359744	-0.423544	-0.0868181	0.1	-0.00304403	1.14436	0.00183256	-0.255911	-1.06127	0.536992	0.1	-0.0055616	-0.113299	-0.150022	0.341553	-0.0419064	-0.814093	-0.127392	2.33262	1.43181	-5.66263e-06	-0.0173684	-0.812801	-0.415688	-0.237794	1.92324	2.0298	-0.00482724	-0.00281183
2.9	-0.20187	0.0684116	-0.0613513	0.790149	0.861533	-0.306504	-0.281017	-0.086561	-0.333356	-0.481936	-0.190721	0.1	-0.00304403	1.10439	-0.0103327	-0.28517	-0.926436	0.55285	0.1	-0.0055616	-0.113932	-0.137154	0.350349	-0.0574564	-0.813924	-0.140335	2.34894	1.44169	-5.66263e-06	-0.0173684	-0.834034	-0.397067	-0.25645	1.936	2.03011	-0.00482724	-0.00281183
2.91	-0.195689	0.0522223	-0.0624954	0.791834	0.863932	-0.306398	-0.282807	-0.0731262	-0.299346	-0.569319	-0.272816	0.1	-0.00304403	1.05788	-0.0221485	-0.311973	-0.805513	0.559359	0.1	-0.0055616	-0.11899	-0.119649	0.35297	-0.0768019	-0.808547	-0.149494	2.35593	1.45402	-5.66263e-06	-0.0173684	-0.84812	-0.377404	-0.2726	1.94834	2.02966	-0.00482724	-0.00281183
2.92	-0.185952	0.0346519	-0.0604866	0.793503	0.865706	-0.306526	-0.276642	-0.0576556	-0.26288	-0.682223	-0.332026	0.1	-0.00304403	1.00693	-0.0318926	-0.335398	-0.703724	0.556084	0.1	-0.0055616	-0.128607	-0.10002	0.348728	-0.0995822	-0.798292	-0.154466	2.35334	1.46863	-5.66263e-06	-0.0173684	-0.854746	-0.358677	-0.285356	1.96006	2.02731	-0.00482724	-0.00281183
2.93	-0.172757	0.017986	-0.0550138	0.795121	0.866778	-0.307054	-0.264479	-0.0431287	-0.229362	-0.81576	-0.36974	0.1	-0.00304403	0.953737	-0.0381164	-0.354447	-0.625247	0.5433	0.1	-0.0055616	-0.142423	-0.0807388	0.337309	-0.12552	-0.783676	-0.155375	2.34118	1.48528	-5.66263e-06	-0.0173684	-0.853665	-0.342976	-0.293807	1.97068	2.0225	-0.00482724	-0.00281183
2.94	-0.156737	0.00425421	-0.0459792	0.7966	0.867051	-0.308075	-0.247558	-0.0324329	-0.203205	-0.964326	-0.388902	0.1	-0.00304403	0.900636	-0.0397328	-0.36824	-0.572742	0.522354	0.1	-0.0055616	-0.159541	-0.0639726	0.31878	-0.154352	-0.765331	-0.152798	2.31982	1.50361	-5.66263e-06	-0.0173684	-0.844668	-0.332184	-0.297178	1.97943	2.01527	-0.00482724	-0.00281183
2.95	-0.139014	-0.00495734	-0.033545	0.79781	0.866437	-0.309599	-0.22612	-0.0279721	-0.186951	-1.12225	-0.393013	0.1	-0.00304403	0.84993	-0.0360799	-0.376175	-0.547127	0.496012	0.1	-0.0055616	-0.178663	-0.0513619	0.293562	-0.185749	-0.743929	-0.147616	2.28999	1.52319	-5.66263e-06	-0.0173684	-0.827564	-0.327674	-0.294998	1.98535	2.00612	-0.00482724	-0.00281183
2.96	-0.121009	-0.00865123	-0.0181433	0.79861	0.864872	-0.31155	-0.199384	-0.0313513	-0.180938	-1.28425	-0.385377	0.1	-0.00304403	0.803658	-0.026951	-0.378006	-0.547585	0.468663	0.1	-0.0055616	-0.19834	-0.0438978	0.262383	-0.219263	-0.720143	-0.140835	2.25278	1.54344	-5.66263e-06	-0.0173684	-0.802174	-0.330095	-0.287209	1.98738	1.99594	-0.00482724	-0.00281183
2.97	-0.104174	-0.00649084	-0.000454077	0.798866	0.86241	-0.31381	-0.165773	-0.0431808	-0.183493	-1.4457	-0.368708	0.1	-0.00304403	0.76325	-0.0125953	-0.373852	-0.571683	0.446121	0.1	-0.0055616	-0.217256	-0.041887	0.226231	-0.254349	-0.694609	-0.133445	2.20963	1.56364	-5.66263e-06	-0.0173684	-0.768358	-0.339315	-0.274179	1.98461	1.98579	-0.00482724	-0.00281183
2.98	-0.0897383	0.00119602	0.0186442	0.798481	0.85934	-0.316244	-0.123289	-0.0630022	-0.19152	-1.60261	-0.345034	0.1	-0.00304403	0.729183	0.00629381	-0.364166	-0.615466	0.434765	0.1	-0.0055616	-0.234439	-0.0449779	0.18633	-0.290468	-0.667913	-0.126362	2.16228	1.58297	-5.66263e-06	-0.0173684	-0.726068	-0.354511	-0.25663	1.97654	1.97687	-0.00482724	-0.00281183
2.99	-0.0785028	0.0134319	0.0381281	0.797396	0.85621	-0.318676	-0.0699884	-0.0893116	-0.201253	-1.75152	-0.315801	0.1	-0.00304403	0.700733	0.0286121	-0.349641	-0.673558	0.440025	0.1	-0.0055616	-0.24935	-0.0522267	0.144143	-0.32725	-0.64057	-0.120436	2.11278	1.60062	-5.66263e-06	-0.0173684	-0.675452	-0.374388	-0.235489	1.96331	1.9703	-0.00482724	-0.00281183
3	-0.0707715	0.0286921	0.0568933	0.795586	0.853484	-0.320913	-0.00444731	-0.119654	-0.209036	-1.88924	-0.282086	0.1	-0.00304403	0.675998	0.0528757	-0.33101	-0.739438	0.464772	0.1	-0.0055616	-0.261841	-0.0621523	0.101372	-0.364634	-0.613015	-0.116473	2.06338	1.61593	-5.66263e-06	-0.0173684	-0.616977	-0.397419	-0.21176	1.94591	1.96699	-0.00482724	-0.00281183
3.01	-0.0664033	0.044983	0.0738285	0.793082	0.851236	-0.322851	0.0738513	-0.150831	-0.211999	-2.01269	-0.244823	0.1	-0.00304403	0.652248	0.0771965	-0.309096	-0.806161	0.50855	0.1	-0.0055616	-0.272021	-0.0728462	0.0598827	-0.4029	-0.58562	-0.115198	2.01636	1.62848	-5.66263e-06	-0.0173684	-0.551565	-0.422061	-0.18644	1.92618	1.96746	-0.00482724	-0.00281183
